<?xml version="1.0" encoding="UTF-8"?>
<svg version="1.1" xmlns="http://www.w3.org/2000/svg" width="939" height="911">
  <path d="M0 0 C15.32576353 7.7668584 30.88424462 15.07798509 46.48925781 22.26342773 C58.8446112 27.9555267 71.06761922 33.90188324 83.28424072 39.88479614 C94.68540678 45.46581433 106.12869417 50.91939082 117.66503906 56.21655273 C127.42586778 60.71719036 137.0842744 65.41596953 146.73925781 70.13842773 C161.19776015 77.20932687 175.73034546 84.0825371 190.35253906 90.80883789 C199.52900949 95.03541586 208.66563313 99.31922751 217.67675781 103.88842773 C224.78021571 107.49001506 231.99928287 110.82126663 239.23925781 114.13842773 C246.82685449 117.61701594 254.38372516 121.11867969 261.81762695 124.9152832 C266.29205883 127.19108684 270.80736318 129.37360404 275.34082031 131.52905273 C276.6405693 132.14895333 277.94029231 132.76890837 279.23999023 133.38891602 C281.18592998 134.31694491 283.13276243 135.24272046 285.08340454 136.16082764 C302.31374106 144.272831 317.84268433 154.19517204 325.63378906 172.39624023 C331.25937031 188.36217557 334.67661245 205.20409917 338.20849609 221.73168945 C340.10457023 230.59238932 342.09620337 239.4298574 344.11425781 248.26342773 C344.37088196 249.38716293 344.37088196 249.38716293 344.63269043 250.53359985 C347.24337587 261.94821939 349.96138392 273.33322964 352.73486328 284.70947266 C354.93246766 293.76377819 356.98120026 302.84533026 358.97900391 311.94555664 C360.74786034 319.98486416 362.60024022 328.00157537 364.48925781 336.01342773 C368.03392354 351.0618419 371.37250005 366.15465008 374.6875 381.25512695 C376.47044677 389.35330991 378.27181929 397.43794707 380.31738281 405.47436523 C382.3343363 413.4081523 384.08773608 421.38516848 385.80175781 429.38842773 C387.79530361 438.68058463 389.89191837 447.92779748 392.23925781 457.13842773 C396.57951651 474.62191931 400.63568027 492.15645119 404.48608398 509.75366211 C404.64557526 510.48039124 404.80506653 511.20712036 404.96939087 511.95587158 C405.28209324 513.38071622 405.59369684 514.80580249 405.90414429 516.23114014 C406.80714103 520.33502864 407.83416988 524.3855834 408.93847656 528.43920898 C413.13104382 545.02173006 411.66027564 564.09990637 403.13623047 579.07641602 C400.74276705 582.95659039 398.07949054 586.57006262 395.23925781 590.13842773 C394.53027344 591.08073242 393.82128906 592.02303711 393.09082031 592.99389648 C392.47980469 593.7015918 391.86878906 594.40928711 391.23925781 595.13842773 C390.57925781 595.13842773 389.91925781 595.13842773 389.23925781 595.13842773 C388.90925781 596.45842773 388.57925781 597.77842773 388.23925781 599.13842773 C387.57925781 599.13842773 386.91925781 599.13842773 386.23925781 599.13842773 C385.90087891 599.92540039 385.90087891 599.92540039 385.55566406 600.72827148 C383.77303197 603.99202223 381.4911737 606.80613241 379.17675781 609.70092773 C378.68868652 610.31718018 378.20061523 610.93343262 377.69775391 611.56835938 C373.91479255 616.33119999 370.05670814 621.02924361 366.18066406 625.71655273 C364.45598299 627.86806635 362.8608042 630.05326537 361.30175781 632.32592773 C360.62113281 633.25405273 359.94050781 634.18217773 359.23925781 635.13842773 C358.57925781 635.13842773 357.91925781 635.13842773 357.23925781 635.13842773 C356.98402344 635.70303711 356.72878906 636.26764648 356.46582031 636.84936523 C355.08688242 639.42279709 353.46222923 641.5031599 351.61425781 643.76342773 C350.89753906 644.64643555 350.18082031 645.52944336 349.44238281 646.43920898 C348.71535156 647.32995117 347.98832031 648.22069336 347.23925781 649.13842773 C345.94510477 650.7405892 344.65340428 652.34473508 343.36425781 653.95092773 C342.38972656 655.16329102 342.38972656 655.16329102 341.39550781 656.40014648 C339.76548971 658.47015135 338.16560253 660.55217841 336.58300781 662.65795898 C336.1316748 663.25568115 335.6803418 663.85340332 335.21533203 664.46923828 C334.32604996 665.65018044 333.44209813 666.83515845 332.56396484 668.02441406 C331.50230559 669.43211913 330.37588654 670.79052972 329.23925781 672.13842773 C328.57925781 672.13842773 327.91925781 672.13842773 327.23925781 672.13842773 C326.90861328 672.91766602 326.90861328 672.91766602 326.57128906 673.71264648 C324.71673918 677.08999393 322.33878402 679.95591511 319.92675781 682.95092773 C318.97074434 684.14366835 318.01631219 685.33767818 317.06347656 686.53295898 C316.59474121 687.12028809 316.12600586 687.70761719 315.64306641 688.31274414 C314.19549071 690.1953478 312.85184612 692.12949394 311.50878906 694.08764648 C310.75984375 695.0944043 310.01089844 696.10116211 309.23925781 697.13842773 C308.57925781 697.13842773 307.91925781 697.13842773 307.23925781 697.13842773 C306.96976318 697.72180908 306.70026855 698.30519043 306.42260742 698.90625 C305.23469597 701.14703283 303.92752767 702.90870953 302.30566406 704.85327148 C301.73912109 705.53969727 301.17257812 706.22612305 300.58886719 706.93334961 C299.70424805 707.99392578 299.70424805 707.99392578 298.80175781 709.07592773 C294.42927354 714.24167358 294.42927354 714.24167358 290.64160156 719.82983398 C288.88100678 722.72819475 286.65462464 724.75786447 284.23925781 727.13842773 C282.05406269 729.67342401 279.95934403 732.27875894 277.86425781 734.88842773 C276.99510742 735.96447266 276.99510742 735.96447266 276.10839844 737.06225586 C272.75132085 741.22744886 269.4412421 745.42456847 266.18066406 749.66577148 C262.85988111 753.89525963 259.44348081 758.0481275 256.03222656 762.20483398 C253.34169609 765.49616252 250.71332493 768.81354879 248.18066406 772.22827148 C245.50517565 775.82734114 242.67026754 779.24630737 239.73925781 782.63842773 C236.31687896 786.64245086 233.00303618 790.66984858 229.88769531 794.91967773 C224.5542984 802.09827832 219.0794766 809.21564836 213.05175781 815.82592773 C210.27416394 818.87903192 207.81817664 822.02398222 205.42675781 825.38842773 C201.99730614 830.20710934 198.29913103 834.6830187 194.44702148 839.16088867 C191.24900696 842.89658349 188.20633839 846.71741035 185.23925781 850.63842773 C181.74934964 855.23898363 178.15285649 859.72660589 174.42675781 864.13842773 C173.98267578 864.66629883 173.53859375 865.19416992 173.08105469 865.73803711 C162.17325937 878.54854559 149.97942147 887.17328207 133.23925781 890.13842773 C127.90131319 890.54778905 122.58527577 890.55337005 117.23635864 890.53283691 C115.64380238 890.53773444 114.05124968 890.54392821 112.45870292 890.5512948 C108.11178208 890.5676079 103.76504362 890.56539412 99.41810298 890.55991983 C94.71859339 890.55723897 90.01913125 890.5718011 85.31964111 890.58401489 C76.12432922 890.60502576 66.92908044 890.60961227 57.73374738 890.60782701 C50.257029 890.60651732 42.78033025 890.61033403 35.30361557 890.61775208 C33.14669701 890.61985135 30.98977844 890.62194895 28.83285987 890.6240449 C27.2223327 890.62561019 27.2223327 890.62561019 25.57926963 890.6272071 C5.29270745 890.64609155 -14.99381854 890.64506462 -35.28038587 890.63823777 C-53.82268627 890.63266219 -72.36484852 890.65349165 -90.90711664 890.68659824 C-109.96636518 890.72036268 -129.02554759 890.73550024 -148.08482659 890.73088121 C-158.77716161 890.7286395 -169.46936891 890.73383625 -180.16167831 890.7587738 C-189.26365563 890.77982234 -198.36543515 890.78334353 -207.46742068 890.76447421 C-212.10723147 890.75533877 -216.74667381 890.75410597 -221.38645554 890.77482986 C-225.64167934 890.79362527 -229.89623514 890.78894141 -234.1514342 890.76628405 C-235.68294404 890.76211983 -237.21450596 890.76622427 -238.74596058 890.77987999 C-255.72873389 890.92088591 -271.19226239 885.57319329 -283.66625977 873.71728516 C-289.77692654 867.6642407 -295.13904568 861.11517226 -300.34277344 854.27905273 C-302.26434029 851.78318884 -304.21690019 849.41303447 -306.32324219 847.07592773 C-309.81466865 843.18067363 -312.96648004 839.04806634 -316.12231445 834.88037109 C-318.20065007 832.14046065 -320.32136087 829.46912076 -322.56542969 826.86499023 C-324.76074219 824.13842773 -324.76074219 824.13842773 -324.76074219 822.13842773 C-325.42074219 822.13842773 -326.08074219 822.13842773 -326.76074219 822.13842773 C-328.383835 820.2136448 -329.89246883 818.2854695 -331.38574219 816.26342773 C-332.29518524 815.05716053 -333.20534856 813.85143605 -334.11621094 812.64624023 C-334.79176025 811.74760254 -334.79176025 811.74760254 -335.48095703 810.83081055 C-340.17140383 804.62818231 -345.14607977 798.67122632 -350.19824219 792.76342773 C-353.6898029 788.67899428 -357.01364852 784.5335905 -360.19824219 780.20092773 C-363.96898704 775.08588881 -368.00442023 770.29009713 -372.16967773 765.49902344 C-376.69304646 760.27411206 -380.96808612 754.88002403 -385.20214844 749.41967773 C-388.19326446 745.56250434 -391.28876876 741.79187854 -394.39746094 738.02905273 C-395.76074219 736.13842773 -395.76074219 736.13842773 -395.76074219 734.13842773 C-396.42074219 734.13842773 -397.08074219 734.13842773 -397.76074219 734.13842773 C-399.2200276 732.3551869 -400.60303064 730.50922107 -401.94824219 728.63842773 C-404.55592376 725.06470684 -407.17026318 721.55202188 -410.13574219 718.26342773 C-416.24814603 711.44520359 -421.76304694 704.08747747 -427.30371094 696.80249023 C-431.92634528 690.72836152 -436.67268924 684.81910775 -441.64428711 679.02636719 C-445.36138105 674.671869 -448.86536433 670.17946837 -452.32080078 665.61572266 C-454.58330827 662.63566658 -456.90767813 659.75398379 -459.38574219 656.95092773 C-461.76074219 654.13842773 -461.76074219 654.13842773 -461.76074219 652.13842773 C-462.42074219 652.13842773 -463.08074219 652.13842773 -463.76074219 652.13842773 C-465.24902344 650.29467773 -465.24902344 650.29467773 -467.07324219 647.63842773 C-470.56592851 642.70943744 -474.24174014 637.99574668 -478.07324219 633.32592773 C-482.71588521 627.66246664 -487.28568738 621.95299918 -491.78271484 616.17333984 C-495.70616969 611.15343373 -499.80704108 606.29763214 -503.95996094 601.46655273 C-505.76074219 599.13842773 -505.76074219 599.13842773 -505.76074219 597.13842773 C-506.42074219 597.13842773 -507.08074219 597.13842773 -507.76074219 597.13842773 C-509.02246094 595.73999023 -509.02246094 595.73999023 -510.44824219 593.76342773 C-511.24101562 592.66514648 -511.24101562 592.66514648 -512.04980469 591.54467773 C-512.61441406 590.75061523 -513.17902344 589.95655273 -513.76074219 589.13842773 C-514.34597656 588.34436523 -514.93121094 587.55030273 -515.53417969 586.73217773 C-526.61105316 571.44705976 -530.77727259 555.79083849 -528.49880981 536.97540283 C-527.70245928 531.99705757 -526.54859719 527.10399289 -525.38574219 522.20092773 C-525.01963739 520.59224219 -524.65518624 518.98317958 -524.29223633 517.3737793 C-523.33069884 513.13405751 -522.34521476 508.90029738 -521.35247803 504.66778564 C-520.58999129 501.40855789 -519.83879234 498.14678399 -519.08795166 494.88485718 C-517.29668507 487.10469845 -515.48451383 479.32954309 -513.66308594 471.55639648 C-510.32843982 457.32029973 -507.03877353 443.07382058 -503.751297 428.8267746 C-503.26060889 426.70035008 -502.76977816 424.57395853 -502.27893066 422.4475708 C-498.10043401 404.34377255 -493.95071244 386.23371024 -489.8480835 368.11254883 C-486.70889341 354.24980304 -483.50386483 340.40333095 -480.26913452 326.56259155 C-476.69244217 311.25015846 -473.21644921 295.91606652 -469.76074219 280.57592773 C-465.70202045 262.56032015 -461.53720909 244.57491251 -457.20922852 226.62207031 C-455.3234824 218.78751782 -453.47483765 210.95002484 -451.76074219 203.07592773 C-451.60426712 202.36173676 -451.44779205 201.64754578 -451.28657532 200.91171265 C-450.56958007 197.6353391 -449.86372828 194.35790053 -449.17944336 191.07446289 C-445.19194157 172.69953594 -436.66607185 156.48840783 -421.19433594 145.27905273 C-418.12328103 143.40155192 -414.98381037 141.7340297 -411.76074219 140.13842773 C-410.9824707 139.75251465 -410.20419922 139.36660156 -409.40234375 138.96899414 C-397.03130952 132.88560189 -384.49208294 127.15825438 -371.96337891 121.40917969 C-365.56171728 118.46234503 -359.22982328 115.4209872 -352.9543457 112.21582031 C-346.63656796 109.01716347 -340.19798522 106.08732982 -333.76074219 103.13842773 C-326.21076558 99.67675519 -318.70108775 96.18233357 -311.29443359 92.4230957 C-304.1147759 88.78835963 -296.87703147 85.27325172 -289.63574219 81.76342773 C-288.62320374 81.27256683 -288.62320374 81.27256683 -287.59020996 80.77178955 C-278.16064514 76.20643216 -268.67964338 71.78051352 -259.12231445 67.48779297 C-253.41115057 64.91446595 -247.79005724 62.21079033 -242.20385742 59.37792969 C-226.66473236 51.51268527 -210.90308251 44.0848897 -195.07324219 36.82592773 C-187.65227848 33.42276327 -180.27800296 29.96805735 -172.99731445 26.2746582 C-153.8296224 16.56918665 -134.31248874 7.56627311 -114.81298828 -1.44702148 C-110.68373133 -3.36070848 -106.56470296 -5.29555537 -102.44824219 -7.23657227 C-101.78646973 -7.5465918 -101.12469727 -7.85661133 -100.44287109 -8.17602539 C-97.23073233 -9.68285467 -94.03551824 -11.21571983 -90.85839844 -12.79516602 C-57.49864268 -29.22056587 -30.57200386 -15.49478235 0 0 Z " fill="#010101" transform="translate(528.7607421875,20.861572265625)" />
  <path d="M0 0 C5.55780278 2.55129614 9.14257249 6.04070833 11.84765625 11.59375 C15.09248216 21.51323972 12.38280882 33.1943346 10.73828125 43.19140625 C9.22093585 52.66279375 8.25538945 61.97000371 8.11328125 71.56640625 C8.06107422 73.18071533 8.06107422 73.18071533 8.0078125 74.82763672 C8.01443307 80.02561138 8.17752642 83.30308629 11.75390625 87.2421875 C12.56770752 88.04245361 12.56770752 88.04245361 13.39794922 88.85888672 C14.73828125 90.31640625 14.73828125 90.31640625 15.32421875 92.96875 C15.25460937 93.72285156 15.185 94.47695312 15.11328125 95.25390625 C15.05914062 96.02605469 15.005 96.79820312 14.94921875 97.59375 C14.87960937 98.16222656 14.81 98.73070312 14.73828125 99.31640625 C16.17107422 99.38988281 16.17107422 99.38988281 17.6328125 99.46484375 C24.42220894 99.85745092 31.05118701 100.32479902 37.72485352 101.70605469 C39.80098156 102.12656187 41.88252535 102.5208962 43.96777344 102.89355469 C53.03782221 104.56454916 61.64074474 106.99061481 70.36474609 109.96777344 C72.49728485 110.69447439 74.63478854 111.40478974 76.7734375 112.11328125 C84.64551751 114.74788936 92.26248083 117.68814697 99.73828125 121.31640625 C100.41616699 121.63432129 101.09405273 121.95223633 101.79248047 122.27978516 C124.02806874 132.74460665 144.93194196 146.34942302 162.73828125 163.31640625 C167.67293432 167.72422803 172.70736694 172.01916694 177.73828125 176.31640625 C178.48078125 175.69765625 179.22328125 175.07890625 179.98828125 174.44140625 C183.12260052 172.30234476 185.87384193 171.89581913 189.61328125 171.44140625 C195.85569455 170.54194522 199.16413202 168.52639991 203.73828125 164.31640625 C204.59808594 163.56101562 205.45789063 162.805625 206.34375 162.02734375 C211.00386182 157.92156602 211.00386182 157.92156602 215.40625 153.546875 C216.73828125 152.31640625 216.73828125 152.31640625 218.73828125 152.31640625 C219.14228149 151.43239136 219.14228149 151.43239136 219.55444336 150.53051758 C221.52652195 146.84217343 224.44916157 144.03361216 227.30078125 141.00390625 C227.92903809 140.33399658 228.55729492 139.66408691 229.20458984 138.97387695 C242.4884612 125.01746918 242.4884612 125.01746918 250.25390625 123.98046875 C257.43810481 123.87783734 262.96912989 124.71644373 268.3046875 129.8125 C273.10162126 135.29275765 273.09686206 140.15748509 273.00390625 147.16015625 C272.64733983 151.39700424 271.67607442 153.23530609 268.73828125 156.31640625 C268.17496094 156.91453125 267.61164062 157.51265625 267.03125 158.12890625 C261.36826177 163.67278765 254.89492155 167.21345083 248.00390625 170.96484375 C237.57250489 176.65861049 227.74156908 182.87244799 218.77734375 190.69921875 C216.73828125 192.31640625 216.73828125 192.31640625 214.73828125 192.31640625 C212.77865166 195.8581958 212.21660734 199.02643909 211.69140625 203 C210.2428605 206.5204411 207.75017625 208.03332541 204.73828125 210.31640625 C205.56721375 211.77188254 206.39634056 213.22724844 207.22631836 214.68212891 C207.95342786 215.95725527 208.67947223 217.23298948 209.40454102 218.50927734 C211.07144528 221.43569288 212.75377299 224.34172535 214.51171875 227.21484375 C220.17370407 236.49199341 224.46662601 246.3442271 228.73828125 256.31640625 C229.44984375 257.96576172 229.44984375 257.96576172 230.17578125 259.6484375 C237.43039202 277.47473437 241.88231261 296.33059413 244.73828125 315.31640625 C244.91633301 316.395271 245.09438477 317.47413574 245.27783203 318.58569336 C246.78371445 328.45276413 247.04661309 338.12072628 246.99902344 348.08618164 C246.9883085 350.74713998 246.99898113 353.40742141 247.01171875 356.06835938 C247.01906423 366.6454775 246.35304911 376.85627847 244.73828125 387.31640625 C245.85323975 387.44619873 246.96819824 387.57599121 248.11694336 387.7097168 C252.18846472 388.39182632 252.86846714 388.9698284 255.30078125 392.12890625 C260.45798015 397.69430043 266.49611637 398.8366558 273.73828125 400.31640625 C274.73472656 400.52910156 275.73117187 400.74179687 276.7578125 400.9609375 C283.6736479 402.22083412 290.54390194 402.50591733 297.55078125 402.75390625 C323.58532969 403.74620485 323.58532969 403.74620485 331.1875 410.58984375 C335.11413268 414.96156074 337.97879348 418.78173218 338.30078125 424.81640625 C337.95251073 430.27578202 336.07485653 434.91272306 332.2421875 438.85546875 C327.61181779 442.80456212 324.6318691 444.59492249 318.55078125 444.56640625 C317.46410156 444.5715625 316.37742187 444.57671875 315.2578125 444.58203125 C306.27801123 443.9043104 298.43664985 440.2993621 290.17578125 436.94140625 C269.66159285 428.43100014 269.66159285 428.43100014 247.73828125 427.31640625 C246.74828125 427.97640625 245.75828125 428.63640625 244.73828125 429.31640625 C242.2578125 429.29296875 242.2578125 429.29296875 239.55078125 428.94140625 C238.64972656 428.83054687 237.74867188 428.7196875 236.8203125 428.60546875 C236.13324219 428.51007813 235.44617188 428.4146875 234.73828125 428.31640625 C234.59648438 429.05117188 234.4546875 429.7859375 234.30859375 430.54296875 C232.26722376 440.47017899 228.15523926 449.26983828 223.73828125 458.31640625 C223.11065602 459.62368781 222.48305182 460.93097945 221.85546875 462.23828125 C211.67211558 483.23721927 199.09475915 501.77926258 183.73828125 519.31640625 C182.98933594 520.1775 182.24039063 521.03859375 181.46875 521.92578125 C169.51736724 535.44914769 156.53260535 546.82601056 142.05078125 557.56640625 C141.25470459 558.15728027 140.45862793 558.7481543 139.63842773 559.35693359 C126.07488324 569.31640625 126.07488324 569.31640625 122.73828125 569.31640625 C123.25390625 570.36828125 123.76953125 571.42015625 124.30078125 572.50390625 C125.77205775 575.94834329 125.69681142 577.65656379 124.73828125 581.31640625 C123.75355265 588.9022803 125.98332435 593.89776402 129.73828125 600.37890625 C130.26429932 601.31702148 130.79031738 602.25513672 131.33227539 603.22167969 C136.21237104 611.75744394 141.62866849 619.93370015 147.21679688 628.01977539 C158.71608869 644.74458206 158.71608869 644.74458206 158.15234375 653.15625 C156.74945332 660.47510291 152.69265026 665.07795146 146.73828125 669.31640625 C142.28596229 671.54256573 136.56899751 670.81925274 131.73828125 670.31640625 C125.57736823 667.99280682 121.35773793 663.61493151 118.46484375 657.72265625 C115.84528821 650.81148843 113.71528646 643.87238625 111.73828125 636.75390625 C105.79131776 614.48676836 105.79131776 614.48676836 91.73828125 597.31640625 C91.03703125 597.19265625 90.33578125 597.06890625 89.61328125 596.94140625 C87.73828125 596.31640625 87.73828125 596.31640625 85.98828125 593.25390625 C85.57578125 592.28453125 85.16328125 591.31515625 84.73828125 590.31640625 C78.00076862 590.91511887 71.93488456 592.63194538 65.48828125 594.62890625 C24.0025217 607.0937373 -19.19885957 608.73624379 -61.44921875 599.12890625 C-62.11349884 598.9794455 -62.77777893 598.82998474 -63.46218872 598.67599487 C-75.04370303 596.05405643 -86.19914864 592.6440942 -97.26171875 588.31640625 C-97.55046875 589.07953125 -97.83921875 589.84265625 -98.13671875 590.62890625 C-100.31847431 595.84087786 -100.31847431 595.84087786 -103.05981445 597.22290039 C-104.0820813 597.62690063 -104.0820813 597.62690063 -105.125 598.0390625 C-109.84901165 600.2928075 -111.41459824 603.06760819 -113.44921875 607.75390625 C-113.77889648 608.46401855 -114.10857422 609.17413086 -114.44824219 609.90576172 C-115.41959624 612.0297068 -116.34826237 614.16700721 -117.26171875 616.31640625 C-117.74769531 617.45464844 -118.23367188 618.59289062 -118.734375 619.765625 C-121.37748067 626.33701616 -123.34544206 633.00824261 -125.234375 639.828125 C-132.31182195 663.85915211 -132.31182195 663.85915211 -141.26171875 669.31640625 C-146.51568163 671.65150086 -151.86744394 672.42064353 -157.375 670.62890625 C-163.48501965 667.86731545 -167.06618525 664.33370508 -169.57421875 658.00390625 C-171.82883171 645.91098219 -167.46786013 638.42710809 -160.69921875 628.5234375 C-159.31925421 626.52916297 -157.9312817 624.54086255 -156.53759766 622.55615234 C-153.08834337 617.61462555 -149.88632353 612.56899244 -146.82421875 607.37890625 C-146.42356201 606.70569336 -146.02290527 606.03248047 -145.61010742 605.33886719 C-141.25246629 597.85391281 -137.67199279 591.52376117 -138.13671875 582.62890625 C-138.37552893 577.62946697 -138.11426959 573.99086593 -136.26171875 569.31640625 C-136.97751099 568.84968506 -136.97751099 568.84968506 -137.70776367 568.37353516 C-150.83539692 559.78771958 -163.4617834 551.04150657 -175.015625 540.375 C-176.97126151 538.58261663 -178.97216133 536.88600681 -181.01171875 535.19140625 C-192.03552713 525.5483577 -201.60291449 514.08956625 -210.26171875 502.31640625 C-210.70580078 501.71280273 -211.14988281 501.10919922 -211.60742188 500.48730469 C-223.17125088 484.58911963 -232.93076463 467.56142129 -240.26171875 449.31640625 C-240.85726562 447.85074219 -240.85726562 447.85074219 -241.46484375 446.35546875 C-242.12376769 444.71799359 -242.77581869 443.07771934 -243.41796875 441.43359375 C-244.23251658 439.38968206 -245.11204942 437.3865017 -246.01171875 435.37890625 C-247.26171875 432.31640625 -247.26171875 432.31640625 -247.26171875 429.31640625 C-247.98617187 429.33960938 -248.710625 429.3628125 -249.45703125 429.38671875 C-254.93300516 429.48893693 -259.07300088 429.16128371 -264.26171875 427.31640625 C-271.24210263 426.80372269 -277.10516162 428.36841253 -283.76171875 430.37890625 C-285.35185791 430.84937378 -285.35185791 430.84937378 -286.97412109 431.3293457 C-293.81936174 433.41283791 -300.30570834 435.88643537 -306.79345703 438.88525391 C-316.9398384 443.54134223 -328.44715671 447.87116692 -339.51171875 444.25390625 C-345.61088575 439.95676586 -349.5488426 434.61718984 -351.26171875 427.31640625 C-352.14045657 420.39634592 -350.40598181 415.90839854 -346.26171875 410.31640625 C-341.23580483 405.65824213 -334.79089699 404.69605764 -328.26171875 403.31640625 C-327.49947998 403.14689453 -326.73724121 402.97738281 -325.9519043 402.80273438 C-323.05578941 402.27917862 -320.25531139 402.07396692 -317.31640625 401.921875 C-291.96213138 401.68074889 -291.96213138 401.68074889 -269.5390625 391.78125 C-268.04645782 390.13301269 -268.04645782 390.13301269 -266.26171875 387.31640625 C-263.63815413 386.33125247 -261.01647752 385.89401696 -258.26171875 385.31640625 C-258.40174316 384.71771729 -258.54176758 384.11902832 -258.68603516 383.50219727 C-260.89804394 372.5096284 -260.65695242 361.42225216 -260.63671875 350.25390625 C-260.63650726 349.18493103 -260.63629578 348.11595581 -260.63607788 347.0145874 C-260.59194063 324.6878305 -258.53208414 303.6169444 -251.84228516 282.22314453 C-250.95810145 279.31924429 -250.22133283 276.3768003 -249.44921875 273.44140625 C-243.20469416 251.77365827 -232.77409549 230.08497135 -220.26171875 211.31640625 C-220.26171875 210.32640625 -220.26171875 209.33640625 -220.26171875 208.31640625 C-220.90109375 207.90390625 -221.54046875 207.49140625 -222.19921875 207.06640625 C-224.26171875 205.31640625 -224.26171875 205.31640625 -224.57421875 202.12890625 C-226.23447373 192.9220377 -235.08198199 187.93685148 -242.29150391 182.88891602 C-248.29718943 178.80641391 -254.5357133 175.27902137 -260.921875 171.83349609 C-271.23472546 166.23450796 -282.03641855 159.88038573 -286.26171875 148.31640625 C-287.22415424 142.03413503 -286.57741693 137.2516949 -282.7890625 132.078125 C-279.28212604 128.03303972 -276.69575674 125.73321537 -271.2734375 124.8046875 C-262.99423974 124.36689208 -257.75642614 126.30456126 -251.26171875 131.31640625 C-250.62621094 131.7959375 -249.99070312 132.27546875 -249.3359375 132.76953125 C-245.55714849 135.81937427 -242.41377376 139.30463221 -239.26171875 142.984375 C-231.82630814 151.65417995 -224.33341769 159.30774165 -215.26171875 166.31640625 C-214.06869141 167.39728516 -214.06869141 167.39728516 -212.8515625 168.5 C-209.71416514 170.70043706 -207.48790123 170.99696491 -203.69921875 171.37890625 C-199.15890285 171.84606014 -196.78366497 172.4362369 -193.26171875 175.31640625 C-190.66282092 175.39665283 -190.66282092 175.39665283 -188.26171875 174.31640625 C-186.57633274 172.31975311 -186.57633274 172.31975311 -185.26171875 170.31640625 C-184.60171875 170.31640625 -183.94171875 170.31640625 -183.26171875 170.31640625 C-183.26171875 169.65640625 -183.26171875 168.99640625 -183.26171875 168.31640625 C-181.96875 166.9765625 -181.96875 166.9765625 -180.07421875 165.37890625 C-179.336875 164.755 -178.59953125 164.13109375 -177.83984375 163.48828125 C-176.9890625 162.7715625 -176.13828125 162.05484375 -175.26171875 161.31640625 C-174.3284375 160.4965625 -173.39515625 159.67671875 -172.43359375 158.83203125 C-159.44243046 147.4764986 -145.27096655 137.80264762 -130.26171875 129.31640625 C-129.63523437 128.960625 -129.00875 128.60484375 -128.36328125 128.23828125 C-120.88279499 124.02478287 -113.43844367 120.39771531 -105.3515625 117.45703125 C-102.39189441 116.36446098 -99.52558661 115.14503974 -96.63671875 113.87890625 C-74.63622168 104.68553165 -51.82198698 100.94194391 -28.26171875 98.31640625 C-28.11476563 97.33800781 -28.11476563 97.33800781 -27.96484375 96.33984375 C-26.68939117 88.88504332 -26.68939117 88.88504332 -24.1640625 85.52734375 C-21.07134885 80.30719875 -21.717138 74.88732983 -21.82421875 68.94140625 C-21.84077515 67.06787476 -21.84077515 67.06787476 -21.85766602 65.15649414 C-22.04352416 54.88100354 -22.9970135 45.11052201 -26.26171875 35.31640625 C-26.54200294 31.92554741 -26.53925126 28.53007757 -26.57421875 25.12890625 C-26.60322266 24.20787109 -26.63222656 23.28683594 -26.66210938 22.33789062 C-26.71948907 16.11881484 -25.88130986 11.4651834 -22.26171875 6.31640625 C-20.19140625 4.2578125 -20.19140625 4.2578125 -18.13671875 2.87890625 C-17.45351563 2.40582031 -16.7703125 1.93273437 -16.06640625 1.4453125 C-11.15562133 -1.62658542 -5.52426332 -1.66968235 0 0 Z " fill="#212121" transform="translate(476.26171875,120.68359375)" />
  <path d="M0 0 C5.55780278 2.55129614 9.14257249 6.04070833 11.84765625 11.59375 C15.09248216 21.51323972 12.38280882 33.1943346 10.73828125 43.19140625 C9.22093585 52.66279375 8.25538945 61.97000371 8.11328125 71.56640625 C8.06107422 73.18071533 8.06107422 73.18071533 8.0078125 74.82763672 C8.01443307 80.02561138 8.17752642 83.30308629 11.75390625 87.2421875 C12.56770752 88.04245361 12.56770752 88.04245361 13.39794922 88.85888672 C14.73828125 90.31640625 14.73828125 90.31640625 15.32421875 92.96875 C15.25460937 93.72285156 15.185 94.47695312 15.11328125 95.25390625 C15.05914062 96.02605469 15.005 96.79820312 14.94921875 97.59375 C14.87960937 98.16222656 14.81 98.73070312 14.73828125 99.31640625 C16.17107422 99.38988281 16.17107422 99.38988281 17.6328125 99.46484375 C24.42220894 99.85745092 31.05118701 100.32479902 37.72485352 101.70605469 C39.80098156 102.12656187 41.88252535 102.5208962 43.96777344 102.89355469 C53.03782221 104.56454916 61.64074474 106.99061481 70.36474609 109.96777344 C72.49728485 110.69447439 74.63478854 111.40478974 76.7734375 112.11328125 C84.64551751 114.74788936 92.26248083 117.68814697 99.73828125 121.31640625 C100.41616699 121.63432129 101.09405273 121.95223633 101.79248047 122.27978516 C124.02806874 132.74460665 144.93194196 146.34942302 162.73828125 163.31640625 C167.67293432 167.72422803 172.70736694 172.01916694 177.73828125 176.31640625 C178.48078125 175.69765625 179.22328125 175.07890625 179.98828125 174.44140625 C183.12260052 172.30234476 185.87384193 171.89581913 189.61328125 171.44140625 C195.85569455 170.54194522 199.16413202 168.52639991 203.73828125 164.31640625 C204.59808594 163.56101562 205.45789063 162.805625 206.34375 162.02734375 C211.00386182 157.92156602 211.00386182 157.92156602 215.40625 153.546875 C216.73828125 152.31640625 216.73828125 152.31640625 218.73828125 152.31640625 C219.14228149 151.43239136 219.14228149 151.43239136 219.55444336 150.53051758 C221.52652195 146.84217343 224.44916157 144.03361216 227.30078125 141.00390625 C227.92903809 140.33399658 228.55729492 139.66408691 229.20458984 138.97387695 C242.4884612 125.01746918 242.4884612 125.01746918 250.25390625 123.98046875 C257.43810481 123.87783734 262.96912989 124.71644373 268.3046875 129.8125 C273.10162126 135.29275765 273.09686206 140.15748509 273.00390625 147.16015625 C272.64733983 151.39700424 271.67607442 153.23530609 268.73828125 156.31640625 C268.17496094 156.91453125 267.61164062 157.51265625 267.03125 158.12890625 C261.36826177 163.67278765 254.89492155 167.21345083 248.00390625 170.96484375 C237.57250489 176.65861049 227.74156908 182.87244799 218.77734375 190.69921875 C216.73828125 192.31640625 216.73828125 192.31640625 214.73828125 192.31640625 C212.77865166 195.8581958 212.21660734 199.02643909 211.69140625 203 C210.2428605 206.5204411 207.75017625 208.03332541 204.73828125 210.31640625 C205.56721375 211.77188254 206.39634056 213.22724844 207.22631836 214.68212891 C207.95342786 215.95725527 208.67947223 217.23298948 209.40454102 218.50927734 C211.07144528 221.43569288 212.75377299 224.34172535 214.51171875 227.21484375 C220.17370407 236.49199341 224.46662601 246.3442271 228.73828125 256.31640625 C229.44984375 257.96576172 229.44984375 257.96576172 230.17578125 259.6484375 C237.43039202 277.47473437 241.88231261 296.33059413 244.73828125 315.31640625 C244.91633301 316.395271 245.09438477 317.47413574 245.27783203 318.58569336 C246.78371445 328.45276413 247.04661309 338.12072628 246.99902344 348.08618164 C246.9883085 350.74713998 246.99898113 353.40742141 247.01171875 356.06835938 C247.01906423 366.6454775 246.35304911 376.85627847 244.73828125 387.31640625 C245.85323975 387.44619873 246.96819824 387.57599121 248.11694336 387.7097168 C252.18846472 388.39182632 252.86846714 388.9698284 255.30078125 392.12890625 C260.45798015 397.69430043 266.49611637 398.8366558 273.73828125 400.31640625 C274.73472656 400.52910156 275.73117187 400.74179687 276.7578125 400.9609375 C283.6736479 402.22083412 290.54390194 402.50591733 297.55078125 402.75390625 C323.58532969 403.74620485 323.58532969 403.74620485 331.1875 410.58984375 C335.11413268 414.96156074 337.97879348 418.78173218 338.30078125 424.81640625 C337.95251073 430.27578202 336.07485653 434.91272306 332.2421875 438.85546875 C327.61181779 442.80456212 324.6318691 444.59492249 318.55078125 444.56640625 C317.46410156 444.5715625 316.37742187 444.57671875 315.2578125 444.58203125 C306.27801123 443.9043104 298.43664985 440.2993621 290.17578125 436.94140625 C269.66159285 428.43100014 269.66159285 428.43100014 247.73828125 427.31640625 C246.74828125 427.97640625 245.75828125 428.63640625 244.73828125 429.31640625 C242.2578125 429.29296875 242.2578125 429.29296875 239.55078125 428.94140625 C238.64972656 428.83054687 237.74867188 428.7196875 236.8203125 428.60546875 C236.13324219 428.51007813 235.44617188 428.4146875 234.73828125 428.31640625 C234.59648438 429.05117188 234.4546875 429.7859375 234.30859375 430.54296875 C232.26722376 440.47017899 228.15523926 449.26983828 223.73828125 458.31640625 C223.11065602 459.62368781 222.48305182 460.93097945 221.85546875 462.23828125 C211.67211558 483.23721927 199.09475915 501.77926258 183.73828125 519.31640625 C182.98933594 520.1775 182.24039063 521.03859375 181.46875 521.92578125 C169.51736724 535.44914769 156.53260535 546.82601056 142.05078125 557.56640625 C141.25470459 558.15728027 140.45862793 558.7481543 139.63842773 559.35693359 C126.07488324 569.31640625 126.07488324 569.31640625 122.73828125 569.31640625 C123.25390625 570.36828125 123.76953125 571.42015625 124.30078125 572.50390625 C125.77205775 575.94834329 125.69681142 577.65656379 124.73828125 581.31640625 C123.75355265 588.9022803 125.98332435 593.89776402 129.73828125 600.37890625 C130.26429932 601.31702148 130.79031738 602.25513672 131.33227539 603.22167969 C136.21237104 611.75744394 141.62866849 619.93370015 147.21679688 628.01977539 C158.71608869 644.74458206 158.71608869 644.74458206 158.15234375 653.15625 C156.74945332 660.47510291 152.69265026 665.07795146 146.73828125 669.31640625 C142.28596229 671.54256573 136.56899751 670.81925274 131.73828125 670.31640625 C125.57736823 667.99280682 121.35773793 663.61493151 118.46484375 657.72265625 C115.84528821 650.81148843 113.71528646 643.87238625 111.73828125 636.75390625 C105.79131776 614.48676836 105.79131776 614.48676836 91.73828125 597.31640625 C91.03703125 597.19265625 90.33578125 597.06890625 89.61328125 596.94140625 C87.73828125 596.31640625 87.73828125 596.31640625 85.98828125 593.25390625 C85.57578125 592.28453125 85.16328125 591.31515625 84.73828125 590.31640625 C78.00076862 590.91511887 71.93488456 592.63194538 65.48828125 594.62890625 C24.0025217 607.0937373 -19.19885957 608.73624379 -61.44921875 599.12890625 C-62.11349884 598.9794455 -62.77777893 598.82998474 -63.46218872 598.67599487 C-75.04370303 596.05405643 -86.19914864 592.6440942 -97.26171875 588.31640625 C-97.55046875 589.07953125 -97.83921875 589.84265625 -98.13671875 590.62890625 C-100.31847431 595.84087786 -100.31847431 595.84087786 -103.05981445 597.22290039 C-104.0820813 597.62690063 -104.0820813 597.62690063 -105.125 598.0390625 C-109.84901165 600.2928075 -111.41459824 603.06760819 -113.44921875 607.75390625 C-113.77889648 608.46401855 -114.10857422 609.17413086 -114.44824219 609.90576172 C-115.41959624 612.0297068 -116.34826237 614.16700721 -117.26171875 616.31640625 C-117.74769531 617.45464844 -118.23367188 618.59289062 -118.734375 619.765625 C-121.37748067 626.33701616 -123.34544206 633.00824261 -125.234375 639.828125 C-132.31182195 663.85915211 -132.31182195 663.85915211 -141.26171875 669.31640625 C-146.51568163 671.65150086 -151.86744394 672.42064353 -157.375 670.62890625 C-163.48501965 667.86731545 -167.06618525 664.33370508 -169.57421875 658.00390625 C-171.82883171 645.91098219 -167.46786013 638.42710809 -160.69921875 628.5234375 C-159.31925421 626.52916297 -157.9312817 624.54086255 -156.53759766 622.55615234 C-153.08834337 617.61462555 -149.88632353 612.56899244 -146.82421875 607.37890625 C-146.42356201 606.70569336 -146.02290527 606.03248047 -145.61010742 605.33886719 C-141.25246629 597.85391281 -137.67199279 591.52376117 -138.13671875 582.62890625 C-138.37552893 577.62946697 -138.11426959 573.99086593 -136.26171875 569.31640625 C-136.97751099 568.84968506 -136.97751099 568.84968506 -137.70776367 568.37353516 C-150.83539692 559.78771958 -163.4617834 551.04150657 -175.015625 540.375 C-176.97126151 538.58261663 -178.97216133 536.88600681 -181.01171875 535.19140625 C-192.03552713 525.5483577 -201.60291449 514.08956625 -210.26171875 502.31640625 C-210.70580078 501.71280273 -211.14988281 501.10919922 -211.60742188 500.48730469 C-223.17125088 484.58911963 -232.93076463 467.56142129 -240.26171875 449.31640625 C-240.85726562 447.85074219 -240.85726562 447.85074219 -241.46484375 446.35546875 C-242.12376769 444.71799359 -242.77581869 443.07771934 -243.41796875 441.43359375 C-244.23251658 439.38968206 -245.11204942 437.3865017 -246.01171875 435.37890625 C-247.26171875 432.31640625 -247.26171875 432.31640625 -247.26171875 429.31640625 C-247.98617187 429.33960938 -248.710625 429.3628125 -249.45703125 429.38671875 C-254.93300516 429.48893693 -259.07300088 429.16128371 -264.26171875 427.31640625 C-271.24210263 426.80372269 -277.10516162 428.36841253 -283.76171875 430.37890625 C-285.35185791 430.84937378 -285.35185791 430.84937378 -286.97412109 431.3293457 C-293.81936174 433.41283791 -300.30570834 435.88643537 -306.79345703 438.88525391 C-316.9398384 443.54134223 -328.44715671 447.87116692 -339.51171875 444.25390625 C-345.61088575 439.95676586 -349.5488426 434.61718984 -351.26171875 427.31640625 C-352.14045657 420.39634592 -350.40598181 415.90839854 -346.26171875 410.31640625 C-341.23580483 405.65824213 -334.79089699 404.69605764 -328.26171875 403.31640625 C-327.49947998 403.14689453 -326.73724121 402.97738281 -325.9519043 402.80273438 C-323.05578941 402.27917862 -320.25531139 402.07396692 -317.31640625 401.921875 C-291.96213138 401.68074889 -291.96213138 401.68074889 -269.5390625 391.78125 C-268.04645782 390.13301269 -268.04645782 390.13301269 -266.26171875 387.31640625 C-263.63815413 386.33125247 -261.01647752 385.89401696 -258.26171875 385.31640625 C-258.40174316 384.71771729 -258.54176758 384.11902832 -258.68603516 383.50219727 C-260.89804394 372.5096284 -260.65695242 361.42225216 -260.63671875 350.25390625 C-260.63650726 349.18493103 -260.63629578 348.11595581 -260.63607788 347.0145874 C-260.59194063 324.6878305 -258.53208414 303.6169444 -251.84228516 282.22314453 C-250.95810145 279.31924429 -250.22133283 276.3768003 -249.44921875 273.44140625 C-243.20469416 251.77365827 -232.77409549 230.08497135 -220.26171875 211.31640625 C-220.26171875 210.32640625 -220.26171875 209.33640625 -220.26171875 208.31640625 C-220.90109375 207.90390625 -221.54046875 207.49140625 -222.19921875 207.06640625 C-224.26171875 205.31640625 -224.26171875 205.31640625 -224.57421875 202.12890625 C-226.23447373 192.9220377 -235.08198199 187.93685148 -242.29150391 182.88891602 C-248.29718943 178.80641391 -254.5357133 175.27902137 -260.921875 171.83349609 C-271.23472546 166.23450796 -282.03641855 159.88038573 -286.26171875 148.31640625 C-287.22415424 142.03413503 -286.57741693 137.2516949 -282.7890625 132.078125 C-279.28212604 128.03303972 -276.69575674 125.73321537 -271.2734375 124.8046875 C-262.99423974 124.36689208 -257.75642614 126.30456126 -251.26171875 131.31640625 C-250.62621094 131.7959375 -249.99070312 132.27546875 -249.3359375 132.76953125 C-245.55714849 135.81937427 -242.41377376 139.30463221 -239.26171875 142.984375 C-231.82630814 151.65417995 -224.33341769 159.30774165 -215.26171875 166.31640625 C-214.06869141 167.39728516 -214.06869141 167.39728516 -212.8515625 168.5 C-209.71416514 170.70043706 -207.48790123 170.99696491 -203.69921875 171.37890625 C-199.15890285 171.84606014 -196.78366497 172.4362369 -193.26171875 175.31640625 C-190.66282092 175.39665283 -190.66282092 175.39665283 -188.26171875 174.31640625 C-186.57633274 172.31975311 -186.57633274 172.31975311 -185.26171875 170.31640625 C-184.60171875 170.31640625 -183.94171875 170.31640625 -183.26171875 170.31640625 C-183.26171875 169.65640625 -183.26171875 168.99640625 -183.26171875 168.31640625 C-181.96875 166.9765625 -181.96875 166.9765625 -180.07421875 165.37890625 C-179.336875 164.755 -178.59953125 164.13109375 -177.83984375 163.48828125 C-176.9890625 162.7715625 -176.13828125 162.05484375 -175.26171875 161.31640625 C-174.3284375 160.4965625 -173.39515625 159.67671875 -172.43359375 158.83203125 C-159.44243046 147.4764986 -145.27096655 137.80264762 -130.26171875 129.31640625 C-129.63523437 128.960625 -129.00875 128.60484375 -128.36328125 128.23828125 C-120.88279499 124.02478287 -113.43844367 120.39771531 -105.3515625 117.45703125 C-102.39189441 116.36446098 -99.52558661 115.14503974 -96.63671875 113.87890625 C-74.63622168 104.68553165 -51.82198698 100.94194391 -28.26171875 98.31640625 C-28.11476563 97.33800781 -28.11476563 97.33800781 -27.96484375 96.33984375 C-26.68939117 88.88504332 -26.68939117 88.88504332 -24.1640625 85.52734375 C-21.07134885 80.30719875 -21.717138 74.88732983 -21.82421875 68.94140625 C-21.84077515 67.06787476 -21.84077515 67.06787476 -21.85766602 65.15649414 C-22.04352416 54.88100354 -22.9970135 45.11052201 -26.26171875 35.31640625 C-26.54200294 31.92554741 -26.53925126 28.53007757 -26.57421875 25.12890625 C-26.60322266 24.20787109 -26.63222656 23.28683594 -26.66210938 22.33789062 C-26.71948907 16.11881484 -25.88130986 11.4651834 -22.26171875 6.31640625 C-20.19140625 4.2578125 -20.19140625 4.2578125 -18.13671875 2.87890625 C-17.45351563 2.40582031 -16.7703125 1.93273437 -16.06640625 1.4453125 C-11.15562133 -1.62658542 -5.52426332 -1.66968235 0 0 Z M-61.26171875 153.31640625 C-62.24140625 153.59742188 -63.22109375 153.8784375 -64.23046875 154.16796875 C-68.34177726 155.36508505 -72.29242748 156.70723411 -76.26171875 158.31640625 C-77.26074219 158.57292969 -78.25976562 158.82945312 -79.2890625 159.09375 C-84.14454592 160.46799093 -88.59930663 162.63534336 -93.13671875 164.81640625 C-94.05130859 165.2542041 -94.96589844 165.69200195 -95.90820312 166.14306641 C-106.50203239 171.29478456 -117.13345279 176.80873823 -126.26171875 184.31640625 C-127.25171875 184.81140625 -127.25171875 184.81140625 -128.26171875 185.31640625 C-128.26171875 185.97640625 -128.26171875 186.63640625 -128.26171875 187.31640625 C-129.00421875 187.58453125 -129.74671875 187.85265625 -130.51171875 188.12890625 C-133.15233824 189.26917376 -135.11724719 190.41020931 -137.26171875 192.31640625 C-137.26171875 192.97640625 -137.26171875 193.63640625 -137.26171875 194.31640625 C-137.81859375 194.54328125 -138.37546875 194.77015625 -138.94921875 195.00390625 C-141.28405514 196.32908366 -142.88695003 197.84990643 -144.7265625 199.78515625 C-146.56538176 201.61929658 -148.53160623 203.26089337 -150.51171875 204.94140625 C-155.7480825 209.5473048 -160.00547965 214.81235408 -164.26171875 220.31640625 C-164.84179688 221.0434375 -165.421875 221.77046875 -166.01953125 222.51953125 C-167.45126939 224.22652523 -167.45126939 224.22652523 -167.26171875 226.31640625 C-167.92171875 226.31640625 -168.58171875 226.31640625 -169.26171875 226.31640625 C-169.75671875 228.29640625 -169.75671875 228.29640625 -170.26171875 230.31640625 C-170.92171875 230.31640625 -171.58171875 230.31640625 -172.26171875 230.31640625 C-173.71876394 232.09434392 -173.71876394 232.09434392 -175.13671875 234.37890625 C-175.62914062 235.13300781 -176.1215625 235.88710938 -176.62890625 236.6640625 C-178.21220513 239.23597624 -179.72091304 241.84269489 -181.20849609 244.47094727 C-182.25562231 246.30572406 -183.32976012 248.1221521 -184.41015625 249.9375 C-189.10579145 257.93051459 -192.86268921 265.83915574 -195.92578125 274.5859375 C-197.11080309 277.89498972 -198.44493738 281.05140399 -199.88671875 284.25390625 C-203.02608935 291.70991144 -204.63026794 299.42417754 -206.26171875 307.31640625 C-206.40160217 307.98653244 -206.5414856 308.65665863 -206.68560791 309.34709167 C-209.33145197 322.38403269 -209.81623645 335.16554775 -209.76171875 348.44140625 C-209.76161804 349.47323029 -209.76151733 350.50505432 -209.76141357 351.56814575 C-209.73327759 366.2214539 -209.05067905 380.05855542 -204.88232422 394.20629883 C-204.29466185 396.2043971 -203.79073543 398.20470838 -203.30859375 400.23046875 C-202.05424067 405.30547248 -200.46856223 410.27314478 -198.88671875 415.25390625 C-198.59539062 416.19169922 -198.3040625 417.12949219 -198.00390625 418.09570312 C-189.71264396 444.26045408 -174.38223592 467.91621111 -156.26171875 488.31640625 C-155.6275 489.07179688 -154.99328125 489.8271875 -154.33984375 490.60546875 C-150.10770234 495.63356336 -145.48915347 500.31331978 -140.26171875 504.31640625 C-139.60171875 504.31640625 -138.94171875 504.31640625 -138.26171875 504.31640625 C-137.76671875 505.80140625 -137.76671875 505.80140625 -137.26171875 507.31640625 C-135.37587223 508.81952831 -135.37587223 508.81952831 -133.07421875 510.19140625 C-130.27265592 511.97944951 -127.63440442 513.74831639 -125.13671875 515.94140625 C-122.54777153 518.08010178 -120.11034036 519.66162466 -117.16796875 521.2265625 C-115.56495266 522.14304096 -114.02145596 523.16251773 -112.49609375 524.203125 C-109.10980237 526.41566563 -105.63374171 528.28216743 -102.01171875 530.06640625 C-101.32352051 530.40639648 -100.63532227 530.74638672 -99.92626953 531.09667969 C-87.28208277 537.28661872 -74.94949987 542.827364 -61.26171875 546.31640625 C-60.15441406 546.65285156 -59.04710937 546.98929688 -57.90625 547.3359375 C-20.53734283 558.4097424 20.0939342 555.03515683 56.73828125 543.31640625 C57.8687085 542.96473389 57.8687085 542.96473389 59.02197266 542.60595703 C69.58569609 539.29060906 79.09791674 534.77706563 88.75830078 529.39355469 C92.03953611 527.60849793 95.38787475 525.96733119 98.73828125 524.31640625 C98.73828125 523.65640625 98.73828125 522.99640625 98.73828125 522.31640625 C100.04539062 521.94902344 100.04539062 521.94902344 101.37890625 521.57421875 C104.9957837 520.21999254 107.44327934 518.55334017 110.48828125 516.19140625 C111.431875 515.46695312 112.37546875 514.7425 113.34765625 513.99609375 C114.47794566 513.10296719 115.60814329 512.20972445 116.73828125 511.31640625 C117.48875732 510.73656982 118.2392334 510.1567334 119.01245117 509.55932617 C138.41412242 494.38503555 156.14132464 475.21398293 167.73828125 453.31640625 C167.73828125 452.65640625 167.73828125 451.99640625 167.73828125 451.31640625 C168.39828125 451.31640625 169.05828125 451.31640625 169.73828125 451.31640625 C176.01675503 439.18099727 176.01675503 439.18099727 180.94921875 426.453125 C181.73828125 424.31640625 181.73828125 424.31640625 183.73828125 421.31640625 C184.23753825 419.33092175 184.66433128 417.32689442 185.05078125 415.31640625 C186.04577907 410.40172003 187.18028977 405.59216475 188.53125 400.76416016 C195.83415051 374.44605583 199.91809749 344.94491971 193.33203125 318.01953125 C192.84444728 315.79974106 192.44344983 313.6053372 192.08203125 311.36328125 C190.91454921 304.12537975 189.69993681 297.27007807 186.95703125 290.43359375 C185.96192612 287.88842101 185.06651038 285.35384881 184.20703125 282.76171875 C179.63600944 269.03936534 174.37495419 256.02514155 165.9765625 244.140625 C164.73828125 242.31640625 164.73828125 242.31640625 163.11328125 239.00390625 C161.9020635 236.2791614 161.9020635 236.2791614 159.86328125 234.50390625 C157.17152102 231.7329766 155.70104961 228.68116516 153.984375 225.2421875 C152.81463965 222.99480624 152.81463965 222.99480624 149.73828125 222.31640625 C149.07161458 220.64973958 148.40494792 218.98307292 147.73828125 217.31640625 C146.74828125 216.98640625 145.75828125 216.65640625 144.73828125 216.31640625 C144.02602292 215.00686042 143.36482371 213.669058 142.73828125 212.31640625 C138.22690726 206.40284845 132.41238757 199.48143216 125.5625 196.30859375 C123.73828125 195.31640625 123.73828125 195.31640625 122.73828125 192.31640625 C120.23380609 191.09770696 120.23380609 191.09770696 117.73828125 190.31640625 C117.73828125 189.65640625 117.73828125 188.99640625 117.73828125 188.31640625 C112.63741871 183.39143553 105.44632039 179.5524193 98.73828125 177.31640625 C98.40828125 176.32640625 98.07828125 175.33640625 97.73828125 174.31640625 C96.14356559 173.56269551 94.53827421 172.82613916 92.89599609 172.18261719 C90.50417745 171.22242568 88.20308547 170.13365865 85.8828125 169.01171875 C85.01914062 168.5955127 84.15546875 168.17930664 83.265625 167.75048828 C82.36972656 167.31849121 81.47382812 166.88649414 80.55078125 166.44140625 C36.51941215 145.39118853 -14.04457622 139.26368526 -61.26171875 153.31640625 Z " fill="#FDFDFD" transform="translate(476.26171875,120.68359375)" />
  <path d="M0 0 C7.26 0 14.52 0 22 0 C20.73384181 7.29246738 19.24561876 14.45427373 17.43359375 21.62890625 C17.19463882 22.58522446 16.9556839 23.54154266 16.70948792 24.52684021 C16.20947166 26.52458546 15.70774179 28.52190255 15.2043457 30.51879883 C14.43183519 33.58498429 13.66573687 36.65272243 12.90039062 39.72070312 C12.41183292 41.66936478 11.92291387 43.6179359 11.43359375 45.56640625 C11.20441757 46.48402237 10.97524139 47.40163849 10.73912048 48.34706116 C10.41857445 49.61494728 10.41857445 49.61494728 10.09155273 50.90844727 C9.90439194 51.65248306 9.71723114 52.39651886 9.5243988 53.1631012 C9 55 9 55 8 57 C21.2 57 34.4 57 48 57 C49.98 48.09 49.98 48.09 52 39 C52.83887642 35.5618008 53.68599158 32.13447114 54.578125 28.7109375 C54.90257599 27.45067245 54.90257599 27.45067245 55.23358154 26.16494751 C55.90293065 23.56756808 56.57635277 20.97126756 57.25 18.375 C57.71381707 16.57819607 58.17735997 14.78132134 58.640625 12.984375 C59.75677844 8.65529418 60.87847755 4.32770686 62 0 C69.26 0 76.52 0 84 0 C82.875 9 82.875 9 81.78491211 13.31445312 C81.54473862 14.27484497 81.30456512 15.23523682 81.05711365 16.22473145 C80.67112755 17.73770813 80.67112755 17.73770813 80.27734375 19.28125 C80.01240616 20.33534058 79.74746857 21.38943115 79.47450256 22.47546387 C78.63327478 25.81811383 77.78549209 29.15906039 76.9375 32.5 C76.3634975 34.77593205 75.78992523 37.05197266 75.21679688 39.328125 C73.81697291 44.88690496 72.40828444 50.44333017 71 56 C84.86 56.33 98.72 56.66 113 57 C113 63.93 113 70.86 113 78 C97.16 78 81.32 78 65 78 C63.68 83.94 62.36 89.88 61 96 C59.7692048 101.04826163 58.52672631 106.08874611 57.25 111.125 C56.1775 115.37375 55.105 119.6225 54 124 C68.19 124 82.38 124 97 124 C97 130.93 97 137.86 97 145 C80.83 145 64.66 145 48 145 C47.34 148.63 46.68 152.26 46 156 C45.17434454 159.5543964 44.32686266 163.09204769 43.43359375 166.62890625 C43.19463882 167.58522446 42.9556839 168.54154266 42.70948792 169.52684021 C42.20947166 171.52458546 41.70774179 173.52190255 41.2043457 175.51879883 C40.43183519 178.58498429 39.66573687 181.65272243 38.90039062 184.72070312 C38.41183292 186.66936478 37.92291387 188.6179359 37.43359375 190.56640625 C37.20441757 191.48402237 36.97524139 192.40163849 36.73912048 193.34706116 C36.52542313 194.19231857 36.31172577 195.03757599 36.09155273 195.90844727 C35.90439194 196.65248306 35.71723114 197.39651886 35.5243988 198.1631012 C35 200 35 200 34 202 C26.74 202 19.48 202 12 202 C14.80910543 189.04398572 17.92153359 176.20627113 21.25 163.375 C22.8175 157.31125 24.385 151.2475 26 145 C12.8 145 -0.4 145 -14 145 C-15.32 151.27 -16.64 157.54 -18 164 C-18.75225066 167.23050914 -19.51001826 170.44667822 -20.32421875 173.66015625 C-20.61181816 174.81130165 -20.61181816 174.81130165 -20.90522766 175.98570251 C-21.29912653 177.55901158 -21.69469719 179.13190314 -22.09204102 180.7043457 C-22.7020497 183.12012015 -23.30543622 185.53748759 -23.90820312 187.95507812 C-24.29649795 189.50269882 -24.68515498 191.05022869 -25.07421875 192.59765625 C-25.25337326 193.3151857 -25.43252777 194.03271515 -25.61711121 194.77198792 C-26.88435079 199.76870159 -26.88435079 199.76870159 -28 202 C-35.26 202 -42.52 202 -50 202 C-47.19089457 189.04398572 -44.07846641 176.20627113 -40.75 163.375 C-38.39875 154.279375 -38.39875 154.279375 -36 145 C-50.19 145 -64.38 145 -79 145 C-79 138.07 -79 131.14 -79 124 C-63.16 123.67 -47.32 123.34 -31 123 C-25.555 101.22 -25.555 101.22 -20 79 C-34.19 78.67 -48.38 78.34 -63 78 C-63 71.07 -63 64.14 -63 57 C-46.83 57 -30.66 57 -14 57 C-12.68 51.06 -11.36 45.12 -10 39 C-9.23682203 35.735679 -8.4694947 32.47534661 -7.67578125 29.21875 C-7.38818184 28.03218811 -7.38818184 28.03218811 -7.09477234 26.82165527 C-6.7000538 25.19550411 -6.30446324 23.56956433 -5.90795898 21.94384766 C-5.29943719 19.4463884 -4.6955218 16.94784143 -4.09179688 14.44921875 C-3.7033967 12.85149643 -3.31473537 11.25383756 -2.92578125 9.65625 C-2.74662674 8.91370972 -2.56747223 8.17116943 -2.38288879 7.40612793 C-1.11473082 2.22946165 -1.11473082 2.22946165 0 0 Z " fill="#B71C1C" transform="translate(450,365)" />
  <path d="M0 0 C13.2 0 26.4 0 40 0 C38.55625 6.105 37.1125 12.21 35.625 18.5 C35.17334473 20.41103516 34.72168945 22.32207031 34.25634766 24.29101562 C33.89229264 25.82943656 33.52820003 27.3678486 33.1640625 28.90625 C32.97996826 29.68581055 32.79587402 30.46537109 32.60620117 31.26855469 C32.42371826 32.0390918 32.24123535 32.80962891 32.05322266 33.60351562 C31.82005844 34.58946716 31.82005844 34.58946716 31.58218384 35.59533691 C30.7413267 39.06842905 29.86668434 42.53326264 29 46 C15.8 46 2.6 46 -11 46 C-9.87486023 36.99888181 -9.87486023 36.99888181 -9.07617188 33.81884766 C-8.89928833 33.10516022 -8.72240479 32.39147278 -8.54016113 31.65615845 C-8.35159546 30.91626678 -8.16302979 30.17637512 -7.96875 29.4140625 C-7.77277222 28.63106781 -7.57679443 27.84807312 -7.37487793 27.04135132 C-6.96358241 25.40216713 -6.55002083 23.76354999 -6.13427734 22.12548828 C-5.49679131 19.61235049 -4.86699521 17.09737635 -4.23828125 14.58203125 C-3.83638376 12.98426268 -3.43405551 11.38660239 -3.03125 9.7890625 C-2.84268433 9.03702545 -2.65411865 8.2849884 -2.45983887 7.51016235 C-1.1161316 2.2322632 -1.1161316 2.2322632 0 0 Z " fill="#212121" transform="translate(453,443)" />
</svg>
